# xmcd
#
# Track frame offsets:
#	150
#	11966
#	23586
#	34581
#	45634
#	56025
#	67909
#	78802
#	89340
#	103213
#	116992
#	129585
#	138707
#	148414
#	160139
#	173677
#	184989
#	194167
#	205079
#	216583
#	227127
#	238447
#	249669
#	261001
#	272434
#	284261
#	294374
#
# Disc length: 4047 seconds
#
# Revision: 0
# Processed by: cddbd v1.4PL0 Copyright (c) Steve Scherf et al.
# Submitted via: EasyCDDAExtractor 4.6.0.1
#
DISCID=a50fcd1b
DTITLE=Various Artist - M-G-M Doo-Wops #4
DYEAR=1900
DGENRE=Blues
TTITLE0=Richard Barrett - Smoke Gets In Your Eyes
TTITLE1=Notes - Round And Round
TTITLE2=Billy Moore Quartet - That Don't Do Me No Good
TTITLE3=Ocie Smith - Just Kiss Me
TTITLE4=Velairs - A Prom And A Promise
TTITLE5=Richard Barrett - Remember Me
TTITLE6=Billy Moore Quartet - Here It Is, Come And Get It
TTITLE7=Sonny George - Tell Me, Tell Me
TTITLE8=Eddie Carter Quintet - Don't Turn Your Back On Me
TTITLE9=Notes - Trust In Me
TTITLE10=Normanaires - Wrap It Up
TTITLE11=Sonny George - Lip Lockin'
TTITLE12=Billy Moore Quartet - Out Of The Bushes
TTITLE13=Shirley Jackson - Wait For Me
TTITLE14=Normanaires - My Greatest Sin
TTITLE15=Richard Barrett - Only One Way
TTITLE16=Blendtones - Lilly
TTITLE17=Billy Moore Quartet - Pour The Corn John
TTITLE18=Wilhelmia Gary - When The One You Love Loves You
TTITLE19=Jacks and A Jill - Red Dog
TTITLE20=Eddie Carter Quintet - Eat 'Em Up
TTITLE21=Velairs - Don't Tell Tales Out Of School
TTITLE22=Dreamgirls - Love Him
TTITLE23=Wilhelmia Gary - Don't Wake Up
TTITLE24=Jacks and A Jill - I Can't Forget
TTITLE25=Dreamgirls - Heartaches
TTITLE26=Blendtones - Military Kick
EXTD=
EXTT0=
EXTT1=
EXTT2=
EXTT3=
EXTT4=
EXTT5=
EXTT6=
EXTT7=
EXTT8=
EXTT9=
EXTT10=
EXTT11=
EXTT12=
EXTT13=
EXTT14=
EXTT15=
EXTT16=
EXTT17=
EXTT18=
EXTT19=
EXTT20=
EXTT21=
EXTT22=
EXTT23=
EXTT24=
EXTT25=
EXTT26=
PLAYORDER=
